<!DOCTYPE svg PUBLIC "-//W3C//DTD SVG 20010904//EN" "http://www.w3.org/TR/2001/REC-SVG-20010904/DTD/svg10.dtd">
<svg version="1.0" xmlns="http://www.w3.org/2000/svg" width="256px" height="256px" viewBox="0 0 2560 2560" preserveAspectRatio="xMidYMid meet">
<g id="layer101" fill="#000000" stroke="none">
 <path d="M427 2382 c-15 -17 -17 -75 -17 -625 l0 -606 22 -15 c17 -12 48 -16 119 -16 l97 0 4 -228 c3 -217 5 -231 31 -305 71 -204 235 -359 437 -412 72 -19 248 -19 320 0 202 53 366 208 437 412 26 74 28 88 31 306 l4 227 97 0 c71 0 102 4 119 16 l22 15 0 608 c0 576 -1 609 -18 624 -17 16 -91 17 -854 17 -796 0 -836 -1 -851 -18z m521 -117 c3 -59 19 -75 74 -75 l38 0 0 -43 c0 -54 13 -67 67 -67 43 0 43 0 43 -36 0 -59 14 -74 69 -74 35 0 53 -5 66 -20 10 -11 16 -21 14 -23 -2 -1 -23 -16 -47 -32 -24 -16 -50 -38 -58 -49 -14 -20 -22 -13 -189 154 -147 147 -175 171 -175 150 0 -19 37 -62 151 -175 83 -83 154 -158 160 -167 5 -9 6 -24 3 -33 -5 -13 -52 28 -205 181 l-199 199 0 52 c0 58 1 59 85 90 88 32 99 29 103 -32z m670 -374 c65 -33 118 -87 149 -149 24 -49 28 -69 28 -142 0 -70 -5 -94 -25 -135 -31 -64 -91 -124 -155 -155 -72 -35 -198 -35 -270 0 -225 110 -248 418 -41 558 66 44 97 52 191 48 59 -2 91 -8 123 -25z m52 -949 c0 -195 -11 -263 -57 -340 -84 -145 -265 -222 -419 -177 -113 32 -203 109 -253 214 -25 54 -26 63 -29 269 l-3 212 380 0 381 0 0 -178z"/>
 <path d="M1505 1575 c-41 -40 -30 -96 23 -124 47 -25 112 17 112 71 0 39 -40 78 -80 78 -19 0 -40 -9 -55 -25z"/>
 </g>

</svg>